<?xml version="1.0" encoding="UTF-8" standalone="no"?>
<!-- Created with Inkscape (http://www.inkscape.org/) -->

<svg
   xmlns:dc="http://purl.org/dc/elements/1.1/"
   xmlns:cc="http://creativecommons.org/ns#"
   xmlns:rdf="http://www.w3.org/1999/02/22-rdf-syntax-ns#"
   xmlns:svg="http://www.w3.org/2000/svg"
   xmlns="http://www.w3.org/2000/svg"
   xmlns:sodipodi="http://sodipodi.sourceforge.net/DTD/sodipodi-0.dtd"
   xmlns:inkscape="http://www.inkscape.org/namespaces/inkscape"
   width="64"
   height="64"
   viewBox="0 0 16.933333 16.933334"
   version="1.1"
   id="svg3820"
   sodipodi:docname="favicon.svg"
   inkscape:version="0.92.4 (5da689c313, 2019-01-14)"
   inkscape:export-filename="E:\Images\Warehouse\Inkscape renders\favicon 16.png"
   inkscape:export-xdpi="24.774193"
   inkscape:export-ydpi="24.774193">
  <defs
     id="defs3814" />
  <sodipodi:namedview
     id="base"
     pagecolor="#ffffff"
     bordercolor="#666666"
     borderopacity="1.0"
     inkscape:pageopacity="0.0"
     inkscape:pageshadow="2"
     inkscape:zoom="5.6"
     inkscape:cx="25.108653"
     inkscape:cy="21.196546"
     inkscape:document-units="px"
     inkscape:current-layer="layer1"
     showgrid="false"
     units="px"
     inkscape:window-width="1920"
     inkscape:window-height="1137"
     inkscape:window-x="-8"
     inkscape:window-y="-8"
     inkscape:window-maximized="1"
     inkscape:pagecheckerboard="true" />
  <metadata
     id="metadata3817">
    <rdf:RDF>
      <cc:Work
         rdf:about="">
        <dc:format>image/svg+xml</dc:format>
        <dc:type
           rdf:resource="http://purl.org/dc/dcmitype/StillImage" />
        <dc:title></dc:title>
      </cc:Work>
    </rdf:RDF>
  </metadata>
  <g
     inkscape:groupmode="layer"
     id="layer2"
     inkscape:label="White background"
     style="display:inline">
    <rect
       transform="translate(0,-280.06665)"
       id="rect3855"
       width="16.404167"
       height="16.404167"
       x="0.26458317"
       y="280.33124"
       style="fill:#ffffff;stroke-width:0.26458335"
       rx="3.175"
       ry="3.175" />
  </g>
  <g
     inkscape:label="Logo"
     inkscape:groupmode="layer"
     id="layer1"
     transform="translate(0,-280.06665)">
    <path
       sodipodi:nodetypes="cscccccssccccccssccsccsccccccsscccccc"
       inkscape:connector-curvature="0"
       id="path3773"
       style="font-style:normal;font-variant:normal;font-weight:normal;font-stretch:normal;font-size:53.33333206px;line-height:1.25;font-family:'ITC Officina Sans Std';-inkscape-font-specification:'ITC Officina Sans Std';letter-spacing:0px;word-spacing:0px;fill:#000000;fill-opacity:1;stroke:none;stroke-width:0.36432749"
       d="m 4.7068081,282.36797 c -0.038862,-0.19429 -0.1165856,-0.39109 -0.2526005,-0.39109 H 4.0994873 l -1.4329127,0.0163 c -0.291462,0.0387 -0.4274777,0.0418 -0.4274777,0.17789 0.01943,0.0972 0.058293,0.23316 0.097154,0.36918 l 2.3316957,9.11565 c 0.077724,0.25259 0.1165843,0.27204 0.369185,0.27204 h 1.5156021 c 0.2526005,0 0.3108926,-0.11653 0.3497549,-0.31092 l 1.1658482,-4.9354 c 0.1554463,-0.62178 0.3108922,-1.6322 0.3497535,-2.17626 h 0.038868 c 0.038867,0.54406 0.1360151,1.55448 0.2526003,2.17626 l 0.9521091,4.9354 c 0.038871,0.19432 0.09715,0.31092 0.3497553,0.31092 h 1.515599 c 0.252601,0 0.291464,-0.0194 0.369188,-0.27204 l 2.700877,-9.10985 c 0.03886,-0.15544 0.09715,-0.29146 0.09715,-0.36919 0,-0.13601 -0.136014,-0.13842 -0.427476,-0.17726 l -1.25229,-0.0163 h -0.3799 c -0.155445,0 -0.23317,0.19035 -0.272033,0.38466 l -0.932677,4.19705 c -0.233168,1.06869 -0.330323,2.19567 -0.427476,3.2838 h -0.03885 c -0.01942,-0.83551 -0.213739,-2.19569 -0.369184,-3.03122 l -0.8549604,-4.35244 c -0.058295,-0.29145 -0.077717,-0.31089 -0.3691838,-0.31089 H 7.640859 c -0.2914615,0 -0.3108923,0.0194 -0.3691846,0.3109 l -0.8938228,4.35248 c -0.1554463,0.71896 -0.3497544,2.29284 -0.3691855,3.03121 h -0.038861 c -0.097154,-1.06869 -0.2331697,-2.3317 -0.4274779,-3.2838 z" />
    <path
       sodipodi:nodetypes="csccscc"
       inkscape:connector-curvature="0"
       style="fill:#ff9900;fill-opacity:1;fill-rule:evenodd;stroke:none;stroke-width:0.03011222"
       id="path8"
       d="m 13.741204,294.02792 c -1.406846,1.60428 -3.8723197,2.18816 -5.6279376,2.17625 -2.4617184,-0.0167 -4.8365608,-1.43555 -6.6208702,-3.15533 -0.307123,-0.48492 0.00712,-0.89951 0.6079694,-0.59826 2.45154,1.56015 3.9162321,2.11843 5.9265746,2.11843 1.5585949,0 3.9333118,-0.0145 5.5098238,-1.04977 0.238161,-0.15651 0.590886,0.15861 0.20444,0.50868" />
    <path
       sodipodi:nodetypes="ccccccc"
       inkscape:connector-curvature="0"
       style="fill:#ff9900;fill-opacity:1;fill-rule:evenodd;stroke:none;stroke-width:0.03612377"
       id="path10"
       d="m 14.524038,292.9359 c -0.29246,-0.32161 -1.780884,-0.0275 -2.44904,0.10363 -0.203499,0.0405 -0.248405,-0.1357 -0.07313,-0.2783 1.13252,-0.93268 2.925313,-0.87054 3.317412,-0.46383 0.392211,0.45549 0.158002,2.1464 -0.895025,3.1708 -0.161542,0.15733 -0.323763,0.0252 -0.26141,-0.17165 0.204663,-0.64944 0.655348,-2.03755 0.3612,-2.36061" />
  </g>
</svg>
