<?xml version="1.0" encoding="UTF-8" standalone="no"?>
<!-- Created with Inkscape (http://www.inkscape.org/) -->

<svg
   xmlns:dc="http://purl.org/dc/elements/1.1/"
   xmlns:cc="http://creativecommons.org/ns#"
   xmlns:rdf="http://www.w3.org/1999/02/22-rdf-syntax-ns#"
   xmlns:svg="http://www.w3.org/2000/svg"
   xmlns="http://www.w3.org/2000/svg"
   xmlns:sodipodi="http://sodipodi.sourceforge.net/DTD/sodipodi-0.dtd"
   xmlns:inkscape="http://www.inkscape.org/namespaces/inkscape"
   width="64"
   height="64"
   viewBox="0 0 16.933333 16.933334"
   version="1.1"
   id="svg3820"
   sodipodi:docname="favicon.svg"
   inkscape:version="0.92.4 (5da689c313, 2019-01-14)"
   inkscape:export-filename="E:\Images\Warehouse\Inkscape renders\favicon 64.png"
   inkscape:export-xdpi="96"
   inkscape:export-ydpi="96">
  <defs
     id="defs3814" />
  <sodipodi:namedview
     id="base"
     pagecolor="#ffffff"
     bordercolor="#666666"
     borderopacity="1.0"
     inkscape:pageopacity="0.0"
     inkscape:pageshadow="2"
     inkscape:zoom="7.9195959"
     inkscape:cx="23.38198"
     inkscape:cy="47.344664"
     inkscape:document-units="px"
     inkscape:current-layer="layer2"
     showgrid="false"
     units="px"
     inkscape:window-width="1920"
     inkscape:window-height="1137"
     inkscape:window-x="-8"
     inkscape:window-y="-8"
     inkscape:window-maximized="1"
     inkscape:pagecheckerboard="true" />
  <metadata
     id="metadata3817">
    <rdf:RDF>
      <cc:Work
         rdf:about="">
        <dc:format>image/svg+xml</dc:format>
        <dc:type
           rdf:resource="http://purl.org/dc/dcmitype/StillImage" />
        <dc:title></dc:title>
      </cc:Work>
    </rdf:RDF>
  </metadata>
  <g
     inkscape:groupmode="layer"
     id="layer2"
     inkscape:label="White background"
     style="display:inline">
    <rect
       id="rect3855"
       width="15.875"
       height="15.875"
       x="0.52916676"
       y="0.52916676"
       style="fill:#ffffff;stroke-width:0.25604841"
       rx="3.0725806"
       ry="3.0725806" />
  </g>
  <g
     inkscape:label="Logo"
     inkscape:groupmode="layer"
     id="layer1"
     transform="translate(0,-280.06665)">
    <path
       sodipodi:nodetypes="cscccccssccccccssccsccsccccccsscccccc"
       inkscape:connector-curvature="0"
       id="path3773"
       style="font-style:normal;font-variant:normal;font-weight:normal;font-stretch:normal;font-size:53.33333206px;line-height:1.25;font-family:'ITC Officina Sans Std';-inkscape-font-specification:'ITC Officina Sans Std';letter-spacing:0px;word-spacing:0px;fill:#000000;fill-opacity:1;stroke:none;stroke-width:0.28531429"
       d="m 5.5222242,282.62798 c -0.030434,-0.15216 -0.091301,-0.30627 -0.1978181,-0.30627 H 5.0466155 l -1.1221511,0.0128 c -0.2282514,0.0303 -0.3347688,0.0327 -0.3347688,0.13931 0.015216,0.0761 0.04565,0.1826 0.076084,0.28912 l 1.8260114,7.1387 c 0.060867,0.1978 0.0913,0.21304 0.2891183,0.21304 h 1.1869072 c 0.1978181,0 0.2434681,-0.0913 0.2739021,-0.24349 l 0.913006,-3.86504 c 0.121734,-0.48693 0.2434677,-1.27822 0.273901,-1.70429 h 0.030438 c 0.030437,0.42607 0.1065169,1.21736 0.1978178,1.70429 l 0.7456213,3.86504 c 0.030441,0.15217 0.076081,0.24349 0.2739024,0.24349 H 10.86331 c 0.197819,0 0.228254,-0.0152 0.289121,-0.21304 l 2.115127,-7.13416 c 0.03043,-0.12173 0.07608,-0.22825 0.07608,-0.28912 0,-0.10652 -0.106516,-0.10841 -0.334768,-0.13882 l -0.980701,-0.0128 H 11.73066 c -0.121733,0 -0.182602,0.14907 -0.213036,0.30124 l -0.730403,3.28682 c -0.182601,0.83692 -0.258686,1.71948 -0.334769,2.57163 h -0.03042 c -0.01521,-0.65431 -0.167384,-1.7195 -0.289117,-2.37383 l -0.6695417,-3.4085 c -0.045652,-0.22825 -0.060862,-0.24348 -0.2891174,-0.24348 H 7.8199553 c -0.228251,0 -0.2434678,0.0152 -0.289118,0.24348 l -0.6999757,3.40854 c -0.121734,0.56304 -0.2739018,1.79558 -0.2891188,2.37382 h -0.030433 c -0.076084,-0.83692 -0.1826013,-1.82602 -0.334769,-2.57163 z" />
    <path
       sodipodi:nodetypes="csccscc"
       inkscape:connector-curvature="0"
       style="fill:#ff9900;fill-opacity:1;fill-rule:evenodd;stroke:none;stroke-width:0.03011222"
       id="path8"
       d="m 13.741204,292.44041 c -1.406846,1.60428 -3.8723197,2.18816 -5.6279376,2.17625 -2.4617184,-0.0167 -4.8365608,-1.43555 -6.6208702,-3.15533 -0.307123,-0.48492 0.00712,-0.89951 0.6079694,-0.59826 2.45154,1.56015 3.9162321,2.11843 5.9265746,2.11843 1.5585949,0 3.9333118,-0.0145 5.5098238,-1.04977 0.238161,-0.15651 0.590886,0.15861 0.20444,0.50868" />
    <path
       sodipodi:nodetypes="ccccccc"
       inkscape:connector-curvature="0"
       style="fill:#ff9900;fill-opacity:1;fill-rule:evenodd;stroke:none;stroke-width:0.03612377"
       id="path10"
       d="m 14.524038,291.34839 c -0.29246,-0.32161 -1.780884,-0.0275 -2.44904,0.10363 -0.203499,0.0405 -0.248405,-0.1357 -0.07313,-0.2783 1.13252,-0.93268 2.925313,-0.87054 3.317412,-0.46383 0.392211,0.45549 0.158002,2.1464 -0.895025,3.1708 -0.161542,0.15733 -0.323763,0.0252 -0.26141,-0.17165 0.204663,-0.64944 0.655348,-2.03755 0.3612,-2.36061" />
  </g>
</svg>
