<?xml version="1.0" encoding="UTF-8" standalone="no"?>
<!-- Created with Inkscape (http://www.inkscape.org/) -->

<svg
   xmlns:dc="http://purl.org/dc/elements/1.1/"
   xmlns:cc="http://creativecommons.org/ns#"
   xmlns:rdf="http://www.w3.org/1999/02/22-rdf-syntax-ns#"
   xmlns:svg="http://www.w3.org/2000/svg"
   xmlns="http://www.w3.org/2000/svg"
   xmlns:sodipodi="http://sodipodi.sourceforge.net/DTD/sodipodi-0.dtd"
   xmlns:inkscape="http://www.inkscape.org/namespaces/inkscape"
   width="256"
   height="80"
   viewBox="0 0 67.733332 21.166667"
   version="1.1"
   id="svg8"
   inkscape:version="0.92.4 (5da689c313, 2019-01-14)"
   sodipodi:docname="logo-white.svg">
  <defs
     id="defs2" />
  <sodipodi:namedview
     id="base"
     pagecolor="#ffffff"
     bordercolor="#666666"
     borderopacity="1.0"
     inkscape:pageopacity="0.0"
     inkscape:pageshadow="2"
     inkscape:zoom="2.8"
     inkscape:cx="93.387087"
     inkscape:cy="110.77492"
     inkscape:document-units="px"
     inkscape:current-layer="layer1"
     showgrid="false"
     units="px"
     inkscape:window-width="1920"
     inkscape:window-height="1137"
     inkscape:window-x="-8"
     inkscape:window-y="-8"
     inkscape:window-maximized="1"
     inkscape:pagecheckerboard="true" />
  <metadata
     id="metadata5">
    <rdf:RDF>
      <cc:Work
         rdf:about="">
        <dc:format>image/svg+xml</dc:format>
        <dc:type
           rdf:resource="http://purl.org/dc/dcmitype/StillImage" />
        <dc:title></dc:title>
      </cc:Work>
    </rdf:RDF>
  </metadata>
  <g
     inkscape:label="Text"
     inkscape:groupmode="layer"
     id="layer1"
     transform="translate(0,-275.83332)">
    <g
       aria-label="warehouse"
       transform="matrix(0.27698904,0,0,0.27698904,0.41881174,274.88699)"
       style="font-style:normal;font-variant:normal;font-weight:normal;font-stretch:normal;font-size:40px;line-height:1.25;font-family:'ITC Officina Sans Std';-inkscape-font-specification:'ITC Officina Sans Std';letter-spacing:0px;word-spacing:0px;fill:#ffffff;fill-opacity:1;stroke:none"
       id="flowRoot10">
      <path
         d="m 9.4651561,21.805156 c -0.1066667,-0.533334 -0.32,-1.073482 -0.6933333,-1.073482 h -0.973631 l -3.9330356,0.04464 c -0.8,0.106667 -1.1733333,0.115042 -1.1733333,0.488376 0.053333,0.266666 0.16,0.64 0.2666667,1.013333 l 6.3999998,25.020473 c 0.2133333,0.693333 0.32,0.746666 1.0133336,0.746666 h 4.16 c 0.693333,0 0.853333,-0.32 0.96,-0.853333 l 3.2,-13.546666 c 0.426666,-1.706667 0.853333,-4.48 0.959999,-5.973334 h 0.106667 c 0.106667,1.493334 0.373333,4.266667 0.693333,5.973334 l 2.613334,13.546666 c 0.106666,0.533333 0.266666,0.853333 0.96,0.853333 h 4.16 c 0.693333,0 0.8,-0.05333 1.013333,-0.746666 l 7.413333,-25.004553 c 0.106667,-0.426667 0.266667,-0.8 0.266667,-1.013333 0,-0.373334 -0.373334,-0.379924 -1.173334,-0.486591 l -3.437262,-0.04464 h -1.042737 c -0.426667,0 -0.64,0.522453 -0.746667,1.055787 l -2.56,11.52 c -0.64,2.933333 -0.906667,6.026666 -1.173333,9.013333 h -0.106667 c -0.05333,-2.293334 -0.586667,-6.026667 -1.013333,-8.32 L 23.278489,22.071822 c -0.16,-0.8 -0.213333,-0.853333 -1.013333,-0.853333 h -4.746667 c -0.8,0 -0.853333,0.05333 -1.013333,0.853333 l -2.453333,11.946667 c -0.426667,1.973333 -0.96,6.293333 -1.013334,8.32 h -0.106666 c -0.266667,-2.933334 -0.64,-6.4 -1.173334,-9.013333 z"
         style="font-size:53.33333206px;fill:#ffffff"
         id="path3773"
         inkscape:connector-curvature="0"
         sodipodi:nodetypes="cscccccssccccccssccsccsccccccsscccccc" />
      <path
         d="m 59.57715,46.672119 c 0.244345,-0.184791 0.468839,-0.33363 0.468839,-0.546964 0,-1.066666 -1.386667,-1.76 -1.386667,-6.933333 V 28.898489 c 0,-5.546667 -2.506666,-8.586667 -9.173333,-8.586667 -4.106666,0 -9.386666,1.28 -9.386666,2.506667 0,0.213333 0.05333,0.426667 0.16,0.64 l 1.066666,3.253333 c 0.05333,0.213334 0.266667,0.533334 0.533334,0.533334 0.693333,0 3.626666,-1.6 6.613333,-1.6 3.36,0 3.786667,1.546666 3.786667,3.946666 v 1.653334 c -4.213334,0 -13.92,0 -13.92,9.013333 0,5.013333 3.093333,8.213333 8,8.213333 4,0 5.866666,-2.133333 6.933333,-3.2 0.266667,1.333333 1.937202,4.048214 2.417202,4.048214 0.213334,0 0.446518,-0.07071 0.693334,-0.213334 z m -7.317827,-5.186964 c -0.64,0.64 -2.026667,2.026667 -4,2.026667 -2.026667,0 -3.52,-1.546667 -3.52,-3.626667 0,-4.693333 6.186666,-4.266666 7.52,-4.266666 z"
         style="font-size:53.33333206px;fill:#ffffff"
         id="path3775"
         inkscape:connector-curvature="0"
         sodipodi:nodetypes="csssssccssscsscscccsscc" />
      <path
         d="m 72.604323,29.005156 c 0.693333,-0.746667 2.4,-2.56 4.053333,-2.56 1.226667,0 2.186667,0.586666 2.506667,0.586666 0.213333,0 0.373333,-0.32 0.426666,-0.48 l 1.653333,-4.48 c 0.05333,-0.106666 0.106667,-0.32 0.106667,-0.533333 0,-0.693333 -1.546667,-1.226667 -3.093333,-1.226667 -3.626667,0 -5.6,2.986667 -6.613333,4.213334 -0.266667,-1.813334 -1.333334,-4.213334 -1.973334,-4.213334 -0.213333,0 -0.48,0.16 -0.693333,0.213334 l -4.053333,1.653333 c -0.266667,0.106667 -0.48,0.266667 -0.48,0.48 0,1.226667 1.386666,2.186667 1.386666,8.053333 v 16.106667 c 0,0.586666 0.106667,0.746666 0.746667,0.746666 h 5.28 c 0.64,0 0.746667,-0.16 0.746667,-0.746666 z"
         style="font-size:53.33333206px;fill:#ffffff"
         id="path3777"
         inkscape:connector-curvature="0" />
      <path
         d="m 102.09682,41.538489 c -0.10666,-0.213334 -0.32,-0.426667 -0.58666,-0.426667 -0.74667,0 -2.933338,1.76 -6.773337,1.76 -5.013334,0 -5.866667,-3.68 -5.866667,-6.666667 h 14.346664 c 1.01334,0 1.22667,-0.32 1.22667,-1.333333 0,-6.453333 -1.6,-14.56 -10.666667,-14.56 -7.146667,0 -11.68,5.866667 -11.68,14.346667 0,9.813333 4.906666,13.813333 11.946666,13.813333 4.213333,0 9.546671,-1.76 9.546671,-3.146667 0,-0.213333 -0.0533,-0.426666 -0.16,-0.586666 z M 88.870156,31.245156 c 0.16,-1.493334 0.373333,-5.973334 4.533333,-5.973334 3.68,0 3.84,3.786667 3.84,5.973334 z"
         style="font-size:53.33333206px;fill:#ffffff"
         id="path3779"
         inkscape:connector-curvature="0" />
      <path
         d="m 131.48349,28.738489 c 0,-4.64 -1.28,-8.426667 -6.93334,-8.426667 -3.78666,0 -5.92,1.866667 -7.36,3.04 V 10.071823 c 0,-0.9066669 -0.10666,-1.1200002 -0.53333,-1.1200002 -0.10667,0 -0.58667,0.16 -0.74667,0.16 l -4.48,0.9066662 c -0.64,0.16 -1.01333,0.16 -1.01333,0.96 v 35.84 c 0,0.586666 0.10667,0.746666 0.74667,0.746666 h 5.28 c 0.64,0 0.74666,-0.16 0.74666,-0.746666 V 28.151822 c 0.69334,-0.64 2.29334,-2.24 4.53334,-2.24 2.72,0 2.98666,2.453334 2.98666,4.48 v 16.426667 c 0,0.586666 0.10667,0.746666 0.74667,0.746666 h 5.28 c 0.64,0 0.74667,-0.16 0.74667,-0.746666 z"
         style="font-size:53.33333206px;fill:#ffffff"
         id="path3781"
         inkscape:connector-curvature="0" />
      <path
         d="m 149.03599,43.138489 c -3.73333,0 -4.37333,-3.786667 -4.37333,-8.746667 0,-4.96 0.69333,-8.746666 4.37333,-8.746666 3.68,0 4.37333,3.786666 4.37333,8.746666 0,5.013333 -0.64,8.746667 -4.37333,8.746667 z m 11.57333,-8.746667 c 0,-8.586666 -4.42666,-14.08 -11.57333,-14.08 -7.2,0 -11.57333,5.493334 -11.57333,14.08 0,8.586667 4.37333,14.08 11.57333,14.08 7.2,0 11.57333,-5.493333 11.57333,-14.08 z"
         style="font-size:53.33333206px;fill:#ffffff"
         id="path3783"
         inkscape:connector-curvature="0" />
      <path
         d="m 188.15765,46.978489 c 0.37333,-0.106667 0.58667,-0.32 0.58667,-0.586667 0,-1.226667 -1.01334,-0.8 -1.01334,-8.32 v -16.64 c 0,-0.906666 -0.10666,-1.12 -0.37333,-1.12 -0.21333,0 -0.74667,0.16 -0.90667,0.16 l -4.48,0.906667 c -0.64,0.16 -1.01333,0.213333 -1.01333,0.96 v 18.88 c -0.69333,0.48 -2.45333,1.653333 -4.69333,1.653333 -2.72,0 -2.98667,-2.453333 -2.98667,-4.48 v -16.96 c 0,-0.906666 -0.10667,-1.12 -0.42667,-1.12 -0.16,0 -0.69333,0.16 -0.85333,0.16 l -4.48,0.906667 c -0.64,0.16 -1.01333,0.213333 -1.01333,0.96 v 18.346666 c 0,6.453334 4,7.786667 6.93333,7.786667 4.21333,0 6.72,-1.866667 8.16,-3.146667 0.58667,2.133334 1.01333,3.146667 1.70667,3.146667 0.21333,0 0.48,-0.05333 0.8,-0.16 z"
         style="font-size:53.33333206px;fill:#ffffff"
         id="path3785"
         inkscape:connector-curvature="0" />
      <path
         d="m 211.68348,23.618489 c 0.10667,-0.213333 0.26667,-0.533333 0.26667,-0.693333 0,-1.226667 -5.06667,-2.613334 -8.32,-2.613334 -5.76,0 -9.44,3.84 -9.44,8.693334 0,3.093333 1.54666,4.959999 3.14666,6.026666 3.52,2.346667 8.74667,2.346667 8.74667,5.44 0,1.92 -1.49333,2.666667 -3.25333,2.666667 -3.30667,0 -7.41334,-2.346667 -7.62667,-2.346667 -0.21333,0 -0.32,0.213333 -0.42667,0.48 l -1.17333,3.04 c -0.0533,0.213333 -0.26667,0.533333 -0.26667,0.693333 0,1.44 6.08,3.466667 10.02667,3.466667 5.65333,0 9.12,-3.68 9.12,-8.586667 0,-3.093333 -1.49333,-5.12 -3.57333,-6.506666 -3.78667,-2.506667 -8.58667,-2.293333 -8.58667,-5.173333 0,-1.813334 1.49333,-2.56 3.52,-2.56 3.41333,0 6.02667,1.386666 6.18667,1.386666 0.0533,0 0.32,-0.213333 0.42666,-0.48 z"
         style="font-size:53.33333206px;fill:#ffffff"
         id="path3787"
         inkscape:connector-curvature="0" />
      <path
         d="m 236.47182,41.538489 c -0.10666,-0.213334 -0.32,-0.426667 -0.58666,-0.426667 -0.74667,0 -2.93334,1.76 -6.77334,1.76 -5.01333,0 -5.86666,-3.68 -5.86666,-6.666667 h 14.34666 c 1.01334,0 1.22667,-0.32 1.22667,-1.333333 0,-6.453333 -1.6,-14.56 -10.66667,-14.56 -7.14666,0 -11.68,5.866667 -11.68,14.346667 0,9.813333 4.90667,13.813333 11.94667,13.813333 4.21333,0 9.54667,-1.76 9.54667,-3.146667 0,-0.213333 -0.0533,-0.426666 -0.16,-0.586666 z M 223.24516,31.245156 c 0.16,-1.493334 0.37333,-5.973334 4.53333,-5.973334 3.68,0 3.84,3.786667 3.84,5.973334 z"
         style="font-size:53.33333206px;fill:#ffffff"
         id="path3789"
         inkscape:connector-curvature="0" />
    </g>
    <flowRoot
       xml:space="preserve"
       id="flowRoot3792"
       style="font-style:normal;font-weight:normal;font-size:40px;line-height:1.25;font-family:sans-serif;letter-spacing:0px;word-spacing:0px;fill:#000000;fill-opacity:1;stroke:none"><flowRegion
         id="flowRegion3794"><rect
           id="rect3796"
           width="59.346462"
           height="45.961941"
           x="22.98097"
           y="-36.907402" /></flowRegion><flowPara
         id="flowPara3798"></flowPara></flowRoot>  </g>
  <g
     inkscape:groupmode="layer"
     id="layer4"
     inkscape:label="Arrow">
    <path
       transform="translate(0,-275.83331)"
       d="m 45.084455,291.62821 c -3.395925,2.50306 -8.540685,3.83854 -12.77859,3.83854 -5.942231,0 -10.554066,-1.67427 -15.215705,-6.12197 -0.317971,-0.28745 -0.123943,-1.02552 0.540147,-0.64673 4.308841,3.11968 9.453216,4.53019 15.031685,4.53019 3.762222,0 8.123502,-0.7784 11.928972,-2.39369 0.574889,-0.2442 1.05566,0.37647 0.493491,0.79366"
       id="path8"
       style="fill:#ff9900;fill-opacity:1;fill-rule:evenodd;stroke:none;stroke-width:0.05843785"
       inkscape:connector-curvature="0"
       sodipodi:nodetypes="csccscc" />
    <path
       transform="translate(0,-275.83331)"
       d="m 46.36633,289.98991 c -0.473119,-0.52028 -2.880963,-0.0444 -3.961845,0.16764 -0.329203,0.0657 -0.401848,-0.21955 -0.118306,-0.45023 1.832092,-1.50879 4.808766,-0.94954 5.213706,-0.52096 0.405126,0.43102 0.408515,3.24287 -1.294981,4.90007 -0.261326,0.25451 -0.523753,0.0408 -0.422885,-0.27767 0.331084,-1.05061 1.060166,-3.29619 0.584321,-3.8188"
       id="path10"
       style="fill:#ff9900;fill-opacity:1;fill-rule:evenodd;stroke:none;stroke-width:0.05843785"
       inkscape:connector-curvature="0"
       sodipodi:nodetypes="ccccccc" />
  </g>
</svg>
